<svg width="231" height="47" viewBox="0 0 231 47" fill="none" xmlns="http://www.w3.org/2000/svg">
<g clip-path="url(#clip0_31_259)">
<path fill-rule="evenodd" clip-rule="evenodd" d="M34.0851 8.94277H17.5189L16.2397 16.2319L24.1991 16.1634H33.2691C37.5067 16.1634 39.6861 17.9067 39.6861 20.6822C39.6861 25.1326 36.0433 28.024 30.6687 28.024H22.0881L14.2078 27.8502L10.844 46.9999L19.9509 40.3323L20.8511 35.2604H30.037C40.1493 35.2604 47.9086 29.504 47.9086 20.1503C47.8929 13.5617 42.8919 8.9375 34.0903 8.9375L34.0851 8.94277Z" fill="white"/>
<path d="M0 38.0464L9.10692 31.3788L10.0071 26.307H19.193C26.0311 26.307 31.7847 23.6789 34.8063 19.0811H3.33745L0 38.0464Z" fill="#03A3B7"/>
<path d="M23.2568 0H6.69063L5.49041 6.86777L3.85327 16.2162H11.8916L13.5129 6.87831H36.2171C34.4589 2.69128 29.958 0 23.2568 0Z" fill="#03A3B7"/>
<path d="M90.1321 21.7882C90.9743 20.7033 93.0484 20.0713 94.4487 20.0713C96.1648 20.0713 97.2492 20.7454 97.6808 21.6671L94.8435 26.6705C94.2486 26.1965 93.7222 25.9068 92.9273 25.9068C91.4902 25.9068 90.2847 26.7126 89.3635 28.5875L86.9631 42.4284H80.8093L84.61 20.5822H90.3637L90.1268 21.783L90.1321 21.7882Z" fill="white"/>
<path d="M115.552 28.9507C115.552 38.1147 110.036 42.8706 104.003 42.8706C99.2495 42.8706 95.8857 39.6368 95.8857 34.1121C95.8857 24.8269 101.445 20.0342 107.514 20.0342C112.162 20.0342 115.552 23.3101 115.552 28.9507ZM102.05 33.7539C102.05 36.1555 102.603 36.9877 104.572 36.9877C107.13 36.9877 109.441 33.301 109.441 29.0244C109.441 26.7808 109.004 25.8697 106.961 25.8697C104.519 25.8697 102.05 29.1824 102.05 33.7539Z" fill="white"/>
<path d="M159.287 28.9878C159.287 30.2308 159.05 31.5896 158.613 33.1064H145.742C145.784 35.9873 146.374 37.2671 148.78 37.2671C150.217 37.2671 151.538 36.6719 152.701 35.7503L156.091 39.3158C154.849 41.0749 151.091 42.7497 147.895 42.8814C143.263 42.7602 139.857 39.5686 139.857 34.0438C139.857 25.7225 144.858 20.045 151.406 20.045C156.213 20.0292 159.287 24.0319 159.287 28.9878ZM146.853 28.872H153.333C153.333 26.1491 152.607 25.2643 150.575 25.2643C149.453 25.2801 147.616 26.8337 146.853 28.872Z" fill="white"/>
<path d="M169.689 21.7882C170.531 20.7033 172.605 20.0713 174.005 20.0713C175.721 20.0713 176.806 20.7454 177.237 21.6671L174.4 26.6705C173.805 26.1965 173.279 25.9068 172.484 25.9068C171.047 25.9068 169.841 26.7126 168.92 28.5875L166.52 42.4284H160.366L164.167 20.5822H169.92L169.683 21.783L169.689 21.7882Z" fill="white"/>
<path d="M186.876 13.272L181.754 42.4337H175.6L180.312 15.3576L186.871 13.272H186.876Z" fill="white"/>
<path d="M191.703 42.4337H185.471L189.271 20.5874L195.541 20.6295L191.698 42.4337H191.703ZM193.104 12.877C194.741 12.877 196.22 14.3569 196.22 15.9948C196.22 17.6328 194.741 19.0337 193.104 19.0337C191.345 19.0337 190.066 17.7118 190.066 15.9948C190.066 14.3569 191.345 12.877 193.104 12.877Z" fill="white"/>
<path d="M197.989 37.9937C197.989 37.4776 198.031 36.9878 198.147 36.4769L200.063 25.5538H197.025L197.91 20.5873H200.947L201.832 15.3417L208.391 13.2666L207.111 20.582H211.902L211.017 25.5485H206.227L204.553 34.9917C204.5 35.0339 204.5 35.1919 204.5 35.4289C204.5 36.1925 204.895 36.5928 205.701 36.5928C206.706 36.5928 208.022 35.8291 209.58 34.3071L207.18 41.1064C206.095 41.9122 204.379 42.4652 202.258 42.4652C199.868 42.4652 197.994 41.0274 197.994 37.9885L197.989 37.9937Z" fill="white"/>
<path d="M231 28.9878C231 30.2308 230.763 31.5896 230.326 33.1064H217.455C217.497 35.9873 218.087 37.2671 220.493 37.2671C221.93 37.2671 223.251 36.6719 224.415 35.7503L227.805 39.3158C226.562 41.0749 222.804 42.7497 219.608 42.8814C214.976 42.7602 211.57 39.5686 211.57 34.0438C211.57 25.7225 216.571 20.045 223.12 20.045C227.926 20.0292 231 24.0319 231 28.9878ZM218.566 28.872H225.046C225.046 26.1491 224.32 25.2643 222.288 25.2643C221.167 25.2801 219.329 26.8337 218.566 28.872Z" fill="white"/>
<path d="M70.7024 20.324H62.3587L61.4586 25.4327L60.3899 31.7317L66.012 31.7159L66.9648 25.3906H70.1338C73.1028 25.3906 74.6241 26.6072 74.6241 28.5453C74.6241 31.6632 72.0763 33.6804 68.3019 33.6804H65.554L60.0373 33.5592L57.6895 46.9788L64.0643 42.3019L64.6855 38.7469H67.8545C74.9294 38.7469 80.3831 34.7074 80.3831 28.1556C80.3673 23.5472 76.8719 20.3135 70.7076 20.3135L70.7024 20.324Z" fill="white"/>
<path d="M128.608 20.324H120.264L119.364 25.4327L118.295 31.7317L123.917 31.7159L124.87 25.3906H128.039C131.008 25.3906 132.529 26.6072 132.529 28.5453C132.529 31.6632 129.982 33.6804 126.207 33.6804H123.459L117.943 33.5592L115.595 46.9788L121.97 42.3019L122.591 38.7469H125.76C132.835 38.7469 138.288 34.7074 138.288 28.1556C138.273 23.5472 134.777 20.3135 128.613 20.3135L128.608 20.324Z" fill="white"/>
</g>
<defs>
<clipPath id="clip0_31_259">
<rect width="231" height="47" fill="white"/>
</clipPath>
</defs>
</svg>
